<svg class="trigger-card-icon" viewBox="0 0 32 32" fill="none" aria-hidden="true">
  <path d="M16 28 C16 28 7 22 7 14 C7 9.5 10.5 6 15 6 C15.7 6 16 6.5 16 6.5 C16 6.5 16.3 6 17 6 C21.5 6 25 9.5 25 14 C25 22 16 28 16 28Z" fill="#16a34a"/>
  <path d="M16 6.5 C16 6.5 16 14 16 28" stroke="#bbf7d0" stroke-width="1.2" stroke-linecap="round"/>
  <path d="M16 12 C13 10 10 11 9 13" stroke="#bbf7d0" stroke-width="1" stroke-linecap="round"/>
  <path d="M16 17 C19 15 22 16 23 18" stroke="#bbf7d0" stroke-width="1" stroke-linecap="round"/>
</svg>
