<svg class="trigger-card-icon" viewBox="0 0 32 32" fill="none" aria-hidden="true">
  <path d="M24 4C25.5 4 27 5.5 26.5 8C25.5 13 20 19 14 23C11 25 8 26 6.5 24.5C5 23 6 20.5 8.5 19C13 16 18 11 20.5 7C22 4.5 22.5 4 24 4Z" fill="#FFD43B"/>
  <path d="M23 6.5C21.5 9 19 12 16 15" stroke="#FFF176" stroke-width="1.5" stroke-linecap="round" opacity="0.9"/>
  <path d="M24 4C23.5 2.5 24.5 1.5 25.5 2.5" stroke="#795548" stroke-width="1.5" stroke-linecap="round"/>
  <path d="M6.5 24.5C5.5 25.5 4 25 4.5 23.5" stroke="#795548" stroke-width="1.5" stroke-linecap="round"/>
</svg>
